HIERARCHY
ROOT Hips
{
	OFFSET 0.000000 88.474243 0.000000
	CHANNELS 6 Xposition Yposition Zposition Zrotation Yrotation Xrotation 
	JOINT Hips_Spine
	{
		OFFSET 0.000000 0.000000 0.000000
		CHANNELS 3 Zrotation Yrotation Xrotation
		JOINT Spine
		{
			OFFSET 0.005100 8.711998 -0.691000
			CHANNELS 3 Zrotation Yrotation Xrotation
			JOINT Spine1
			{
				OFFSET -0.009200 8.660301 -1.275000
				CHANNELS 3 Zrotation Yrotation Xrotation
				JOINT Spine2
				{
					OFFSET 0.006300 9.852501 -1.857000
					CHANNELS 3 Zrotation Yrotation Xrotation
					JOINT Spine2_Neck
					{
						OFFSET 0.000000 0.000000 0.000000
						CHANNELS 3 Zrotation Yrotation Xrotation
						JOINT Neck
						{
							OFFSET 0.016300 11.420799 -0.263300
							CHANNELS 3 Zrotation Yrotation Xrotation
							End Site #name: Head
							{
								OFFSET -0.019200 9.262405 2.362500
							}
						}
					}
					JOINT Spine2_LeftShoulder
					{
						OFFSET 0.000000 0.000000 0.000000
						CHANNELS 3 Zrotation Yrotation Xrotation
						JOINT LeftShoulder
						{
							OFFSET 5.616900 6.732201 -0.345700
							CHANNELS 3 Zrotation Yrotation Xrotation
							JOINT LeftArm
							{
								OFFSET 10.664888 -0.183372 -2.440700
								CHANNELS 3 Zrotation Yrotation Xrotation
								JOINT LeftForeArm
								{
									OFFSET 27.459126 0.000000 0.000000
									CHANNELS 3 Zrotation Yrotation Xrotation
									End Site #name: LeftHand
									{
										OFFSET 21.306858 0.000000 0.000000
									}
								}
							}
						}
					}
					JOINT Spine2_RightShoulder
					{
						OFFSET 0.000000 0.000000 0.000000
						CHANNELS 3 Zrotation Yrotation Xrotation
						JOINT RightShoulder
						{
							OFFSET -5.580300 6.737503 -0.344400
							CHANNELS 3 Zrotation Yrotation Xrotation
							JOINT RightArm
							{
								OFFSET -10.679335 -0.188484 -2.383900
								CHANNELS 3 Zrotation Yrotation Xrotation
								JOINT RightForeArm
								{
									OFFSET -27.503529 0.000000 0.000000
									CHANNELS 3 Zrotation Yrotation Xrotation
									End Site #name: RightHand
									{
										OFFSET -21.306808 0.000000 0.000000
									}
								}
							}
						}
					}
				}
			}
		}
	}
	JOINT Hips_LeftUpLeg
	{
		OFFSET 0.000000 0.000000 0.000000
		CHANNELS 3 Zrotation Yrotation Xrotation
		JOINT LeftUpLeg
		{
			OFFSET 6.857700 -6.739601 0.312100
			CHANNELS 3 Zrotation Yrotation Xrotation
			JOINT LeftLeg
			{
				OFFSET -0.367590 -34.731552 -4.572400
				CHANNELS 3 Zrotation Yrotation Xrotation
				End Site #name: LeftFoot
				{
					OFFSET 0.367590 -34.656704 -6.067400
				}
			}
		}
	}
	JOINT Hips_RightUpLeg
	{
		OFFSET 0.000000 0.000000 0.000000
		CHANNELS 3 Zrotation Yrotation Xrotation
		JOINT RightUpLeg
		{
			OFFSET -6.876100 -6.733299 0.301000
			CHANNELS 3 Zrotation Yrotation Xrotation
			JOINT RightLeg
			{
				OFFSET 0.347353 -34.795158 -4.515900
				CHANNELS 3 Zrotation Yrotation Xrotation
				End Site #name: RightFoot
				{
					OFFSET -0.347353 -34.589367 -6.070300
				}
			}
		}
	}
}
MOTION
Frames: 9
Frame Time: 0.041667
-0.006728 -0.031497 -1.305135 -1.126484 4.325094 -3.659744 0.000000 -0.000000 0.000000 1.957257 0.901838 0.656312 -1.872170 0.286066 3.879667 0.000000 0.000000 0.000000 -2.225163 0.395491 3.083741 0.538024 -2.372705 9.927378 -2.042987 0.302126 4.031301 -0.946395 5.789587 -0.927691 -67.381843 -4.302577 62.492794 0.258945 -27.633246 0.136335 -1.978772 0.410910 3.168004 1.284757 9.929282 3.057665 68.728692 2.622386 42.565286 0.340536 78.377309 0.581005 0.000000 0.000000 0.000000 3.318443 9.988686 -11.224469 2.037859 6.093853 15.290260 0.000000 -0.000000 0.000000 -2.356731 -9.457269 -11.295465 -0.246001 -0.522679 15.083777 
-0.098892 -0.034384 -1.348361 -1.067161 4.347004 -3.652284 0.000000 -0.000000 0.000000 1.986003 0.890180 0.653912 -1.850683 0.279501 3.867481 0.000000 0.000000 0.000000 -2.199908 0.387245 3.077056 0.537356 -2.385236 9.942844 -2.022014 0.297361 4.015996 -0.965546 5.800777 -0.932650 -67.395701 -4.328177 62.419350 0.258106 -27.619477 0.131958 -1.956091 0.403096 3.160928 1.255602 9.910976 3.049548 68.782470 2.604311 42.723477 0.312830 77.960438 0.556132 0.000000 0.000000 0.000000 3.341924 9.997547 -11.226458 2.028203 6.073882 15.244477 0.000000 -0.000000 0.000000 -2.328112 -9.440802 -11.312687 -0.245672 -0.535516 15.100733 
-0.188103 -0.037522 -1.391228 -1.011382 4.364757 -3.644330 0.000000 -0.000000 0.000000 2.015988 0.872685 0.657509 -1.826549 0.272041 3.857503 0.000000 0.000000 0.000000 -2.171175 0.377187 3.073314 0.535771 -2.393117 9.957482 -1.998934 0.292227 4.002467 -0.982386 5.810838 -0.937527 -67.423899 -4.353656 62.316483 0.257754 -27.588955 0.126311 -1.930410 0.394528 3.156416 1.228889 9.886908 3.039859 68.825269 2.609345 42.878164 0.288022 77.562540 0.534504 0.000000 0.000000 0.000000 3.365844 10.004228 -11.230025 2.020103 6.056525 15.201314 0.000000 -0.000000 0.000000 -2.300032 -9.424983 -11.332348 -0.242792 -0.546636 15.122599 
-0.274086 -0.040797 -1.433855 -0.958360 4.380113 -3.636561 0.000000 -0.000000 0.000000 2.044663 0.858511 0.659723 -1.802052 0.263904 3.850091 0.000000 0.000000 0.000000 -2.141007 0.366549 3.071683 0.536584 -2.395016 9.972811 -1.974371 0.286248 3.992881 -0.994301 5.824274 -0.944038 -67.437253 -4.382121 62.212573 0.256496 -27.515800 0.123079 -1.902505 0.384832 3.152947 1.204046 9.858101 3.029031 68.839324 2.640916 43.011957 0.267453 77.240714 0.516949 0.000000 0.000000 0.000000 3.388942 10.010643 -11.233495 2.013092 6.039703 15.159854 0.000000 -0.000000 0.000000 -2.274563 -9.412291 -11.352510 -0.241151 -0.559207 15.147856 
-0.356591 -0.044238 -1.476162 -0.908645 4.393758 -3.629464 0.000000 -0.000000 0.000000 2.071522 0.839200 0.665073 -1.777080 0.254983 3.843622 0.000000 0.000000 0.000000 -2.110330 0.354021 3.072235 0.534846 -2.392908 9.981338 -1.949713 0.279892 3.983901 -1.008557 5.839450 -0.949644 -67.456184 -4.411927 62.104007 0.255596 -27.447039 0.118286 -1.874153 0.374548 3.151695 1.181699 9.823752 3.016270 68.808690 2.688572 43.108517 0.255917 77.026704 0.506607 0.000000 0.000000 0.000000 3.413758 10.015163 -11.236930 2.006027 6.029718 15.123332 0.000000 -0.000000 0.000000 -2.250258 -9.396325 -11.374486 -0.238004 -0.572765 15.175631 
-0.435683 -0.047785 -1.518263 -0.860764 4.408504 -3.624120 0.000000 -0.000000 0.000000 2.098548 0.819703 0.675844 -1.753037 0.246633 3.840648 0.000000 0.000000 0.000000 -2.080268 0.344866 3.073364 0.536458 -2.385305 9.988227 -1.925157 0.273379 3.977275 -1.025923 5.848799 -0.956023 -67.478687 -4.450681 61.991611 0.254279 -27.332656 0.115405 -1.847279 0.364414 3.152615 1.162824 9.790107 3.007244 68.731227 2.753817 43.149662 0.243519 76.923902 0.496193 0.000000 0.000000 -0.000000 3.438206 10.020503 -11.245244 2.001179 6.020612 15.095913 0.000000 -0.000000 0.000000 -2.226142 -9.383323 -11.391872 -0.235933 -0.584210 15.197269 
-0.511537 -0.051408 -1.560240 -0.814721 4.421411 -3.620349 0.000000 -0.000000 0.000000 2.123387 0.802053 0.690803 -1.730967 0.237885 3.838474 0.000000 0.000000 0.000000 -2.052929 0.336136 3.074985 0.536079 -2.374492 9.992231 -1.902361 0.267210 3.971957 -1.044714 5.863164 -0.962365 -67.502600 -4.494814 61.889116 0.252837 -27.215127 0.113175 -1.821519 0.354420 3.153338 1.144402 9.755663 2.997019 68.599418 2.819239 43.143212 0.236878 76.935992 0.489926 0.000000 0.000000 -0.000000 3.462497 10.033335 -11.248311 1.999134 6.018990 15.066235 0.000000 -0.000000 0.000000 -2.204357 -9.372208 -11.404548 -0.232668 -0.594270 15.214369 
-0.584244 -0.055075 -1.602098 -0.769446 4.432075 -3.617775 0.000000 -0.000000 0.000000 2.147903 0.784619 0.711463 -1.711311 0.230233 3.837429 0.000000 0.000000 0.000000 -2.028190 0.328098 3.076884 0.537638 -2.361788 9.991275 -1.882356 0.261325 3.968033 -1.059838 5.877689 -0.967969 -67.516418 -4.543706 61.775135 0.251839 -27.052380 0.110548 -1.798788 0.345522 3.154817 1.137752 9.722478 2.991651 68.430883 2.896591 43.115420 0.231786 77.042603 0.485020 0.000000 0.000000 -0.000000 3.487629 10.048001 -11.255216 1.998860 6.022772 15.046891 0.000000 -0.000000 0.000000 -2.185677 -9.361338 -11.418151 -0.230077 -0.601593 15.234516 
-0.653979 -0.058760 -1.644015 -0.724404 4.440580 -3.615925 0.000000 -0.000000 0.000000 2.168252 0.771512 0.732875 -1.693428 0.223009 3.836033 0.000000 0.000000 0.000000 -2.005396 0.320406 3.078443 0.539027 -2.347642 9.989212 -1.864281 0.255790 3.963559 -1.079617 5.891201 -0.974156 -67.538082 -4.589320 61.659816 0.250472 -26.905461 0.108177 -1.777505 0.337022 3.155786 1.128891 9.704695 2.990884 68.237869 2.967517 43.072203 0.227927 77.172516 0.479266 0.000000 0.000000 -0.000000 3.510118 10.070355 -11.262041 2.001855 6.032129 15.030095 0.000000 -0.000000 0.000000 -2.169920 -9.353616 -11.427183 -0.227822 -0.607180 15.248358 
